PathFileType	3	(X/Y/Z)	D:\minhoCalibration\240510\subject2_KPNP\preferred\preferred09.trc
DataRate	CameraRate	NumFrames	NumMarkers	Units	OrigDataRate	OrigDataStartFrame	OrigNumFrames
200.0	200.0	33	10	mm	200.0	380	221	
Frame#	Time	Left_Ankle_Outer1			Left_Ankle_Inner1			Left_Knee_Outer1			Left_Knee_Inner1			Left_Wrist1			Right_Wrist1			Right_Knee_Inner1			Right_Knee_Outer1			Right_Ankle_Inner1			Right_Ankle_Outer1			
		X1	Y1	Z1	X2	Y2	Z2	X3	Y3	Z3	X4	Y4	Z4	X5	Y5	Z5	X6	Y6	Z6	X7	Y7	Z7	X8	Y8	Z8	X9	Y9	Z9	X10	Y10	Z10	
380	1.89	-628.21844	122.20154	-698.68036	-636.74976	127.06211	-641.93494	-441.47412	535.99298	-682.6875	-475.68289	517.91516	-590.74426	-552.8457	940.70752	-795.8562	-600.17767	1190.0734	-548.97351	-373.63739	1011.155	-197.35786	-412.63885	1089.5997	-191.79999	-323.54904	956.95099	208.11723	-363.08966	1045.2512	223.59116
381	1.895	-627.29382	123.14946	-698.75848	-635.69495	126.10778	-644.85406	-439.92343	536.8703	-679.35187	-475.68356	518.87598	-588.64374	-550.64825	942.22858	-795.34973	-602.54791	1189.4039	-548.01282	-383.87463	1006.4374	-193.73863	-416.37177	1087.632	-188.8746	-325.65479	948.75171	206.39154	-366.10379	1037.0796	225.853
382	1.9	-626.24274	124.03125	-699.29211	-635.78613	128.3454	-642.66577	-438.51965	537.65094	-676.43658	-475.2381	519.66565	-586.95276	-548.37061	943.97766	-794.9408	-605.09564	1188.4183	-546.96222	-391.27695	1002.8689	-191.26678	-420.74435	1085.9265	-185.64684	-328.76257	938.71259	204.09364	-368.17932	1028.7043	227.42999
383	1.905	-625.01398	124.7094	-700.27325	-635.07153	128.00244	-645.03613	-437.3544	538.26611	-674.08038	-474.46808	520.12134	-585.74292	-546.01581	945.78284	-794.49542	-607.99316	1187.1263	-545.76355	-396.85312	999.60773	-188.78011	-425.53647	1084.0994	-182.48355	-333.23813	929.24115	203.46661	-370.38324	1020.1047	228.942
384	1.91	-623.57434	125.32635	-701.58521	-634.24384	129.1219	-645.84869	-436.474	538.84253	-672.26648	-473.6004	520.26709	-584.81458	-543.3183	947.82568	-794.14386	-611.30139	1185.6587	-544.42841	-399.91156	997.0777	-186.91031	-430.53418	1081.7327	-179.54361	-337.9512	919.8858	202.72166	-372.59402	1011.3472	230.1268
385	1.915	-621.93573	125.91481	-703.15833	-633.11584	128.41988	-649.53253	-435.72348	539.13092	-671.13837	-472.81046	520.18085	-584.30072	-540.46692	949.92499	-793.81	-614.43671	1184.1045	-543.54852	-403.72012	993.78278	-185.30635	-435.48901	1078.5657	-177.12866	-343.47455	910.18549	202.10338	-376.05585	1002.35	230.96126
386	1.92	-620.23175	126.40296	-704.87616	-632.41321	129.56181	-650.19604	-435.33377	539.00952	-670.50226	-472.16626	519.97577	-584.04913	-537.52588	952.12933	-793.55829	-617.88446	1182.6606	-542.5401	-405.78366	990.50464	-184.54793	-439.94193	1074.6229	-175.38968	-350.04984	900.1344	201.59724	-381.05206	992.91461	231.34406
387	1.925	-618.43274	126.89816	-706.63049	-631.51562	130.15065	-651.9425	-435.00818	538.71545	-670.30676	-471.772	519.59918	-584.05505	-534.5307	954.23889	-793.1546	-621.50732	1181.3728	-541.56628	-407.75107	986.75684	-184.62538	-443.60037	1070.1686	-174.50583	-357.21323	890.01471	200.86693	-387.14352	982.9267	231.68459
388	1.93	-616.66101	127.37238	-708.28796	-630.26288	129.77394	-655.25354	-434.91843	538.05634	-670.34125	-471.7132	519.13379	-584.28064	-531.52625	956.2829	-792.66748	-625.32483	1180.2068	-540.63507	-405.84406	983.61243	-187.90514	-445.922	1065.4277	-174.78348	-364.69931	879.68011	200.08981	-394.19397	971.93402	231.47289
389	1.935	-614.98621	127.89439	-709.9444	-629.70697	131.37968	-655.11511	-434.71268	537.45795	-670.40167	-472.2254	518.71521	-584.99976	-528.6955	958.039	-791.96002	-629.15344	1179.3065	-539.96863	-409.16269	978.82404	-188.02596	-447.43237	1060.7946	-175.17729	-372.29321	869.03943	198.98006	-402.82056	960.72998	231.37828
390	1.94	-613.41547	128.31512	-711.38947	-628.89441	131.88322	-656.68475	-434.5463	536.80847	-670.46191	-472.68478	518.30725	-584.92493	-525.83014	959.58685	-791.01746	-632.96448	1178.5172	-540.84662	-413.6814	972.84216	-187.14091	-447.97281	1056.1768	-176.41812	-380.13651	857.99219	197.89539	-412.17325	949.0343	230.80791
391	1.945	-612.09552	128.63765	-712.61908	-627.83459	131.65073	-659.29962	-434.17651	536.49286	-670.39038	-473.61377	518.01306	-585.22223	-523.23041	960.8349	-789.67896	-636.90527	1178.8152	-540.67047	-418.43823	967.51959	-186.40886	-447.96494	1051.6938	-177.90361	-388.40607	846.9118	197.08266	-421.96124	936.61353	230.00526
392	1.95	-610.93225	128.8685	-713.51965	-627.58154	132.5526	-659.10626	-433.76663	536.50079	-670.10028	-474.9025	517.89758	-585.53662	-520.96698	961.79596	-787.78772	-641.06323	1178.6573	-541.79749	-416.38455	963.01959	-188.30338	-448.24579	1047.1721	-178.90765	-396.11139	835.28009	194.80812	-431.9259	923.49902	228.95132
393	1.955	-610.05713	129.07552	-714.16718	-626.83783	131.92545	-661.43665	-432.97186	536.91486	-669.77405	-476.02283	518.25397	-585.94702	-518.76837	962.50909	-786.39288	-645.06213	1178.3972	-542.2522	-413.03348	959.25238	-189.69168	-449.12866	1042.452	-179.13979	-405.28775	822.862	192.8093	-441.90723	909.82959	227.50261
394	1.96	-609.39215	129.14279	-714.50018	-627.14728	132.13284	-661.28784	-432.22906	537.49512	-669.41431	-477.38803	518.5127	-586.32489	-516.97296	962.90759	-784.44952	-648.87262	1177.8375	-542.07312	-409.87057	955.65167	-190.62	-450.28336	1037.6785	-178.94595	-414.26501	810.35089	189.34702	-452.42307	895.80927	225.26619
395	1.965	-608.7525	128.90659	-714.32507	-626.9928	132.81796	-660.77551	-431.96985	537.84747	-668.67377	-478.53613	518.90729	-586.49243	-515.68866	962.99261	-782.32599	-652.13324	1176.5906	-542.19189	-410.49768	950.34918	-196.38008	-451.79663	1032.6724	-178.49062	-425.00162	796.74475	185.8287	-463.29538	881.53149	222.85168
396	1.97	-608.38074	128.84554	-714.54492	-627.12091	131.91019	-662.01868	-431.4487	538.36108	-668.12775	-479.62289	519.24176	-586.6347	-514.10931	963.33484	-781.13629	-654.86627	1174.7754	-542.66974	-415.7991	945.2063	-192.38031	-453.54092	1027.4296	-177.96425	-435.01099	783.12115	180.31621	-473.83951	866.45477	219.37956
397	1.975	-608.3476	128.72667	-714.93616	-627.16736	132.26646	-661.55103	-431.21838	538.69031	-667.49792	-480.72263	519.65625	-586.78131	-512.67175	963.50116	-780.37317	-657.42554	1172.8064	-542.8432	-418.33429	939.31201	-191.89825	-455.42191	1021.8813	-177.30222	-446.00946	768.64471	174.61662	-484.93021	851.31335	215.57857
398	1.98	-608.34015	128.41354	-714.97723	-627.69934	131.31299	-662.29456	-431.11694	539.00055	-666.98218	-481.20422	519.81311	-586.93213	-511.04492	964.10175	-780.54419	-659.72552	1170.5631	-542.73627	-418.78375	935.05481	-193.28271	-457.43448	1016.0116	-176.67165	-457.52399	754.43201	168.58318	-495.96027	835.75165	210.90024
399	1.985	-608.36694	128.0166	-714.90253	-628.1731	130.7645	-662.37238	-431.32434	539.0882	-666.42908	-481.86227	519.99078	-587.05768	-510.06931	964.34296	-780.48376	-661.56049	1168.228	-542.60748	-418.84863	929.9212	-194.60881	-459.51279	1009.7264	-176.22217	-470.94589	737.69989	163.81815	-507.31915	820.07611	205.75404
400	1.99	-608.55725	127.43981	-714.73267	-628.78522	130.22049	-662.35626	-431.68756	539.02325	-666.02875	-482.53806	519.98108	-587.21143	-508.89236	964.74176	-780.96185	-663.1535	1165.9978	-542.55267	-419.14996	924.32458	-195.95326	-461.75058	1003.1457	-175.90565	-480.39844	722.46161	154.60663	-518.89392	804.32526	200.00334
401	1.995	-608.89246	126.80524	-714.48822	-629.21893	129.91998	-661.96149	-432.19604	538.73291	-665.78699	-483.36444	519.7644	-587.46582	-507.73532	965.12305	-781.57019	-664.74786	1163.8475	-542.37872	-419.76794	917.62762	-197.21622	-464.18384	996.22681	-175.87201	-496.15543	704.80188	149.96321	-530.53162	788.3656	193.64012
402	2	-609.34503	126.0691	-714.15179	-630.36108	128.77309	-662.03986	-432.97083	538.25635	-665.63745	-484.38095	519.33667	-587.67218	-506.84601	965.2821	-781.74152	-666.17389	1161.7979	-542.36444	-421.50677	911.17047	-198.46239	-466.75031	988.96991	-176.01071	-508.28766	689.39862	141.51265	-542.26007	772.30988	186.70386
403	2.005	-609.96021	125.10928	-713.75482	-630.80579	127.80574	-662.39081	-433.79974	537.58411	-665.78546	-485.61868	518.69891	-587.91223	-505.74875	965.66742	-782.38165	-667.71625	1159.7179	-542.25549	-423.33099	903.84845	-199.60802	-469.44086	981.39844	-176.30437	-516.51782	675.21747	128.94759	-554.07465	756.19348	178.99947
404	2.01	-610.52539	124.01044	-713.30475	-631.84686	126.51448	-662.46503	-434.91107	536.68298	-665.91327	-487.06549	517.89093	-588.11658	-504.88907	965.72723	-782.67767	-669.05841	1157.6487	-542.29163	-425.42587	896.29633	-200.9549	-472.21313	973.49573	-176.76065	-531.75781	658.44971	121.37347	-566.15692	739.94824	171.01422
405	2.015	-611.32318	122.88786	-713.0918	-633.37445	125.59517	-661.61914	-436.11914	535.50543	-666.0907	-488.59366	516.91553	-588.38812	-503.95984	965.76099	-782.96173	-670.35223	1155.5961	-542.35168	-427.66992	888.6615	-202.42935	-475.0419	965.33069	-177.3584	-542.34906	643.82507	109.71558	-578.23358	723.68555	162.41084
406	2.02	-612.23529	121.64944	-712.75098	-634.53503	124.32882	-661.58563	-437.51874	534.11157	-666.2453	-490.3093	515.83472	-588.72314	-502.99509	965.7464	-783.19745	-671.75317	1153.335	-542.52295	-430.01999	880.85468	-204.1545	-478.07104	956.95221	-178.01897	-556.82843	625.90961	99.66172	-590.37476	707.42163	153.73412
407	2.025	-613.24176	120.38375	-712.55835	-635.30371	123.18332	-661.34692	-438.79599	532.61133	-666.46741	-492.18707	514.61859	-589.05853	-501.88834	965.74396	-783.41119	-673.13208	1151.3099	-542.45898	-432.00223	873.10864	-206.60533	-481.37411	948.38995	-178.77904	-569.33734	611.08551	88.907394	-602.55261	691.18903	144.45584
408	2.03	-614.32825	119.02914	-712.36798	-637.45868	122.33211	-659.29791	-440.11194	531.03278	-666.65759	-493.76617	513.26721	-589.57178	-500.72711	965.67676	-783.54761	-674.66479	1149.1339	-542.51898	-434.70215	865.39349	-208.55998	-484.97733	939.67908	-179.75465	-578.34601	597.33319	75.362144	-614.58868	674.79156	134.06857
409	2.035	-615.53589	117.65865	-712.31348	-638.08844	120.07887	-660.89386	-441.30908	529.41516	-666.8476	-496.01678	512.00305	-590.06287	-499.45026	965.55292	-783.57184	-676.38086	1146.7427	-542.73694	-437.7406	857.53101	-210.43768	-488.88007	930.91168	-180.93878	-590.9986	582.09082	63.763699	-626.40173	658.48102	123.30679
410	2.04	-616.70404	116.13124	-711.85938	-638.92181	118.82014	-660.68652	-442.48709	527.66803	-667.14124	-498.1745	510.73819	-590.6673	-498.17026	965.37622	-783.41327	-678.43707	1144.2001	-542.94867	-440.90936	849.59705	-212.29047	-492.78302	922.1485	-182.89098	-602.20331	567.60681	50.995701	-638.22583	642.31201	111.87597
411	2.045	-617.91278	114.68324	-711.49115	-640.31946	117.70689	-659.63812	-443.52878	525.89978	-667.57147	-500.18866	509.37195	-591.39215	-496.78598	965.1853	-783.1051	-680.71448	1141.373	-543.41479	-444.00342	841.50952	-214.22548	-497.06567	913.39758	-184.38937	-615.50818	552.36816	39.605816	-649.92297	626.19373	99.962975
412	2.05	-619.19067	113.1806	-711.16241	-640.19855	113.97215	-663.07617	-444.34793	524.26178	-668.09686	-502.08102	508.017	-592.23163	-495.18997	965.06006	-782.70502	-683.22443	1138.2936	-544.0199	-447.11374	833.36768	-216.33456	-501.56009	904.5769	-185.93439	-626.3833	537.6543	25.721891	-660.51392	609.27454	85.101044
